<mxfile host="app.diagrams.net" modified="2023-12-05T19:24:11.189Z" agent="Mozilla/5.0 (Macintosh; Intel Mac OS X 10_15_7) AppleWebKit/537.36 (KHTML, like Gecko) Chrome/119.0.0.0 Safari/537.36" version="21.7.4" etag="L7Yn1yq8H5rDGjmsdjX0" type="github">
  <diagram name="PÃ¡gina-1" id="W0ARnX95FcC6Gww1_3TB">
    <mxGraphModel>
      <root>
        <mxCell id="0" />
        <mxCell id="1" parent="0" />
      </root>
    </mxGraphModel>
  </diagram>
</mxfile>
